<svg width="141" height="141" viewBox="0 0 141 141" fill="none" xmlns="http://www.w3.org/2000/svg">
<path d="M70.5001 141C109.437 141 141 109.437 141 70.5V21.15C141 15.5407 138.772 10.1611 134.805 6.19469C130.839 2.2283 125.459 0 119.85 0H74.0251V30.9283C74.0251 37.9854 74.4551 45.2962 78.1564 51.3028C80.8061 55.6076 84.3507 59.2921 88.5498 62.1063C92.7488 64.9204 97.5041 66.7985 102.493 67.613L103.843 67.8316C104.4 68.0218 104.883 68.3813 105.225 68.8598C105.567 69.3383 105.751 69.9118 105.751 70.5C105.751 71.0882 105.567 71.6617 105.225 72.1402C104.883 72.6186 104.4 72.9782 103.843 73.1684L102.493 73.387C95.2039 74.5777 88.4729 78.0279 83.2504 83.2503C78.0279 88.4728 74.5778 95.2038 73.3871 102.493L73.1685 103.843C72.9783 104.4 72.6187 104.883 72.1403 105.225C71.6618 105.567 71.0883 105.751 70.5001 105.751C69.9119 105.751 69.3384 105.567 68.8599 105.225C68.3814 104.883 68.0219 104.4 67.8317 103.843L67.6131 102.493C66.7984 97.5041 64.9202 92.749 62.1061 88.5499C59.2919 84.3509 55.6076 80.8062 51.303 78.1563C45.2964 74.455 37.9855 74.025 30.9285 74.025H0.0847686C1.92834 111.323 32.7474 141 70.5001 141Z" fill="#25D366"/>
<path d="M0 66.9754H30.9283C37.9854 66.9754 45.2962 66.5454 51.3028 62.8441C55.9981 59.9511 59.9506 55.9986 62.8436 51.3033C66.5449 45.2967 66.9749 37.9858 66.9749 30.9288V0.000426037H21.15C15.5407 0.000426037 10.1611 2.22872 6.19468 6.19512C2.22829 10.1615 0 15.5411 0 21.1504V66.9754Z" fill="#25D366"/>
</svg>
