<svg width="37" height="38" viewBox="0 0 37 38" fill="none" xmlns="http://www.w3.org/2000/svg">
<path d="M10.7916 32.7539V30.1917C10.7916 29.3739 11.1165 28.5897 11.6947 28.0114C12.273 27.4332 13.0572 27.1083 13.875 27.1083H23.125C23.9427 27.1083 24.727 27.4332 25.3052 28.0114C25.8835 28.5897 26.2083 29.3739 26.2083 30.1917V32.7539M33.9166 19.4C33.9166 27.9144 27.0144 34.8167 18.5 34.8167C9.98559 34.8167 3.08331 27.9144 3.08331 19.4C3.08331 10.8856 9.98559 3.98334 18.5 3.98334C27.0144 3.98334 33.9166 10.8856 33.9166 19.4ZM23.125 16.3167C23.125 18.871 21.0543 20.9417 18.5 20.9417C15.9457 20.9417 13.875 18.871 13.875 16.3167C13.875 13.7624 15.9457 11.6917 18.5 11.6917C21.0543 11.6917 23.125 13.7624 23.125 16.3167Z" stroke="#25D366" stroke-width="3" stroke-linecap="round" stroke-linejoin="round"/>
</svg>
