<svg width="25" height="24" viewBox="0 0 25 24" fill="none" xmlns="http://www.w3.org/2000/svg">
<path d="M18.375 9H20.375C20.9054 9 21.4141 9.21071 21.7892 9.58579C22.1643 9.96086 22.375 10.4696 22.375 11V22L18.375 18H12.375C11.8446 18 11.3359 17.7893 10.9608 17.4142C10.5857 17.0391 10.375 16.5304 10.375 16V15M14.375 9C14.375 9.53043 14.1643 10.0391 13.7892 10.4142C13.4141 10.7893 12.9054 11 12.375 11H6.375L2.375 15V4C2.375 3.46957 2.58571 2.96086 2.96079 2.58579C3.33586 2.21071 3.84457 2 4.375 2H12.375C12.9054 2 13.4141 2.21071 13.7892 2.58579C14.1643 2.96086 14.375 3.46957 14.375 4V9Z" stroke="#929292" stroke-width="2" stroke-linecap="round" stroke-linejoin="round"/>
</svg>
