<svg width="117" height="93" viewBox="0 0 117 93" fill="none" xmlns="http://www.w3.org/2000/svg">
<path fill-rule="evenodd" clip-rule="evenodd" d="M17.5178 1.97297C16.6208 0.244935 14.4928 -0.428792 12.7648 0.468162C11.0368 1.36512 10.363 3.49309 11.26 5.22113L14.601 11.6578C15.498 13.3859 17.6259 14.0596 19.354 13.1626C21.082 12.2657 21.7558 10.1377 20.8588 8.40967L17.5178 1.97297ZM13.9977 2.8434C14.4139 2.62736 14.9265 2.78964 15.1425 3.20586L18.4836 9.64256C18.6996 10.0588 18.5373 10.5713 18.1211 10.7874C17.7049 11.0034 17.1923 10.8412 16.9763 10.4249L13.6352 3.98824C13.4192 3.57201 13.5815 3.05945 13.9977 2.8434ZM26.3709 17.3589C21.9369 17.3589 18.3425 20.9534 18.3425 25.3874V81.725C18.3425 86.159 21.9369 89.7535 26.3709 89.7535H79.894C84.328 89.7535 87.9224 86.159 87.9224 81.725V73.0356C82.3231 69.7965 78.5559 63.7425 78.5559 56.8087C78.5559 49.8748 82.3231 43.8208 87.9224 40.5817V25.3874C87.9224 20.9534 84.328 17.3589 79.894 17.3589H74.4033V19.3887C74.4033 23.0837 71.408 26.079 67.713 26.079H41.2283C37.5333 26.079 34.5379 23.0837 34.5379 19.3887V17.3589H26.3709ZM90.5986 39.3056V25.3874C90.5986 19.4754 85.806 14.6828 79.894 14.6828H62.3058C61.3971 11.2046 58.2336 8.63791 54.4706 8.63791C50.7077 8.63791 47.5442 11.2046 46.6354 14.6828H26.3709C20.4589 14.6828 15.6663 19.4754 15.6663 25.3874V81.725C15.6663 87.637 20.4589 92.4296 26.3709 92.4296H79.894C85.806 92.4296 90.5986 87.637 90.5986 81.725V74.3117C92.6764 75.1064 94.9318 75.5417 97.289 75.5417C107.635 75.5417 116.022 67.1546 116.022 56.8087C116.022 46.4627 107.635 38.0756 97.289 38.0756C94.9318 38.0756 92.6764 38.5109 90.5986 39.3056ZM0.835598 12.4887C1.70639 10.7474 3.82397 10.0416 5.56534 10.9124L12.0517 14.156C13.793 15.0268 14.4988 17.1444 13.628 18.8857C12.7572 20.6271 10.6396 21.3328 8.89824 20.462L2.4119 17.2185C0.670537 16.3477 -0.0351982 14.2301 0.835598 12.4887ZM4.3684 13.306C3.94896 13.0962 3.43891 13.2662 3.22916 13.6857C3.01941 14.1051 3.1894 14.6152 3.60884 14.8249L10.0952 18.0685C10.5146 18.2782 11.0247 18.1082 11.2344 17.6888C11.4442 17.2694 11.2742 16.7593 10.8547 16.5496L4.3684 13.306ZM46.9033 44.2812C46.9033 42.4337 48.401 40.936 50.2485 40.936H72.9958C74.8433 40.936 76.341 42.4337 76.341 44.2812C76.341 46.1287 74.8433 47.6264 72.9958 47.6264H50.2485C48.401 47.6264 46.9033 46.1287 46.9033 44.2812ZM50.2485 56.6009C48.401 56.6009 46.9033 58.0986 46.9033 59.9461C46.9033 61.7936 48.401 63.2913 50.2485 63.2913H72.9958C74.8433 63.2913 76.341 61.7936 76.341 59.9461C76.341 58.0986 74.8433 56.6009 72.9958 56.6009H50.2485ZM49.5795 59.9461C49.5795 59.5766 49.879 59.277 50.2485 59.277H72.9958C73.3653 59.277 73.6649 59.5766 73.6649 59.9461C73.6649 60.3156 73.3653 60.6151 72.9958 60.6151H50.2485C49.879 60.6151 49.5795 60.3156 49.5795 59.9461ZM46.9033 76.3258C46.9033 74.4783 48.401 72.9806 50.2485 72.9806H72.9958C74.8433 72.9806 76.341 74.4783 76.341 76.3258C76.341 78.1732 74.8433 79.6709 72.9958 79.6709H50.2485C48.401 79.6709 46.9033 78.1732 46.9033 76.3258ZM50.2485 75.6567C49.879 75.6567 49.5795 75.9563 49.5795 76.3258C49.5795 76.6953 49.879 76.9948 50.2485 76.9948H72.9958C73.3653 76.9948 73.6649 76.6953 73.6649 76.3258C73.6649 75.9563 73.3653 75.6567 72.9958 75.6567H50.2485ZM31.9532 43.0816C31.9532 40.8646 33.7505 39.0674 35.9674 39.0674H38.0899C40.3069 39.0674 42.1041 40.8646 42.1041 43.0816V45.2041C42.1041 47.4211 40.3069 49.2183 38.0899 49.2183H35.9674C33.7504 49.2183 31.9532 47.4211 31.9532 45.2041V43.0816ZM35.9674 54.7323C33.7505 54.7323 31.9532 56.5295 31.9532 58.7465V60.869C31.9532 63.086 33.7504 64.8832 35.9674 64.8832H38.0899C40.3069 64.8832 42.1041 63.086 42.1041 60.869V58.7465C42.1041 56.5295 40.3069 54.7323 38.0899 54.7323H35.9674ZM34.6294 58.7465C34.6294 58.0075 35.2284 57.4084 35.9674 57.4084H38.0899C38.8289 57.4084 39.428 58.0075 39.428 58.7465V60.869C39.428 61.608 38.8289 62.2071 38.0899 62.2071H35.9674C35.2284 62.2071 34.6294 61.608 34.6294 60.869V58.7465ZM31.9532 75.1262C31.9532 72.9092 33.7505 71.112 35.9674 71.112H38.0899C40.3069 71.112 42.1041 72.9092 42.1041 75.1262V77.2487C42.1041 79.4657 40.3069 81.2629 38.0899 81.2629H35.9674C33.7504 81.2629 31.9532 79.4657 31.9532 77.2487V75.1262ZM35.9674 73.7881C35.2284 73.7881 34.6294 74.3872 34.6294 75.1262V77.2487C34.6294 77.9877 35.2284 78.5867 35.9674 78.5867H38.0899C38.8289 78.5867 39.428 77.9877 39.428 77.2487V75.1262C39.428 74.3872 38.8289 73.7881 38.0899 73.7881H35.9674ZM81.232 56.8087C81.232 47.9407 88.421 40.7517 97.289 40.7517C106.157 40.7517 113.346 47.9407 113.346 56.8087C113.346 65.6766 106.157 72.8656 97.289 72.8656C88.421 72.8656 81.232 65.6766 81.232 56.8087ZM93.9438 48.1112C93.9438 46.2637 95.4415 44.766 97.289 44.766C99.1365 44.766 100.634 46.2637 100.634 48.1112V56.1396C100.634 57.9871 99.1365 59.4848 97.289 59.4848C95.4415 59.4848 93.9438 57.9871 93.9438 56.1396V48.1112ZM97.289 47.4421C96.9195 47.4421 96.6199 47.7417 96.6199 48.1112V56.1396C96.6199 56.5091 96.9195 56.8087 97.289 56.8087C97.6585 56.8087 97.958 56.5091 97.958 56.1396V48.1112C97.958 47.7417 97.6585 47.4421 97.289 47.4421ZM97.289 68.8513C95.4415 68.8513 93.9438 67.3537 93.9438 65.5062C93.9438 63.6587 95.4415 62.161 97.289 62.161C99.1365 62.161 100.634 63.6587 100.634 65.5062C100.634 67.3537 99.1365 68.8513 97.289 68.8513ZM96.6199 65.5062C96.6199 65.8757 96.9195 66.1752 97.289 66.1752C97.6585 66.1752 97.958 65.8757 97.958 65.5062C97.958 65.1367 97.6585 64.8371 97.289 64.8371C96.9195 64.8371 96.6199 65.1367 96.6199 65.5062Z" fill="#25D366"/>
</svg>
