<svg width="25" height="24" viewBox="0 0 25 24" fill="none" xmlns="http://www.w3.org/2000/svg">
<path d="M10.9555 21C11.131 21.304 11.3835 21.5565 11.6875 21.732C11.9916 21.9075 12.3364 21.9999 12.6875 21.9999C13.0386 21.9999 13.3834 21.9075 13.6875 21.732C13.9915 21.5565 14.244 21.304 14.4195 21M3.9495 15.326C3.81887 15.4692 3.73266 15.6472 3.70136 15.8385C3.67006 16.0298 3.69502 16.226 3.77321 16.4034C3.8514 16.5807 3.97944 16.7316 4.14176 16.8375C4.30408 16.9434 4.49368 16.9999 4.6875 17H20.6875C20.8813 17.0001 21.0709 16.9438 21.2334 16.8381C21.3958 16.7324 21.524 16.5817 21.6024 16.4045C21.6808 16.2273 21.706 16.0311 21.6749 15.8398C21.6439 15.6485 21.5579 15.4703 21.4275 15.327C20.0975 13.956 18.6875 12.499 18.6875 8C18.6875 6.4087 18.0554 4.88258 16.9301 3.75736C15.8049 2.63214 14.2788 2 12.6875 2C11.0962 2 9.57008 2.63214 8.44486 3.75736C7.31964 4.88258 6.6875 6.4087 6.6875 8C6.6875 12.499 5.2765 13.956 3.9495 15.326Z" stroke="#929292" stroke-width="2" stroke-linecap="round" stroke-linejoin="round"/>
</svg>
