<svg width="25" height="24" viewBox="0 0 25 24" fill="none" xmlns="http://www.w3.org/2000/svg">
<path d="M16.625 2V4M7.625 22V20C7.625 19.4696 7.83571 18.9609 8.21079 18.5858C8.58586 18.2107 9.09457 18 9.625 18H15.625C16.1554 18 16.6641 18.2107 17.0392 18.5858C17.4143 18.9609 17.625 19.4696 17.625 20V22M8.625 2V4M15.625 11C15.625 12.6569 14.2819 14 12.625 14C10.9681 14 9.625 12.6569 9.625 11C9.625 9.34315 10.9681 8 12.625 8C14.2819 8 15.625 9.34315 15.625 11ZM5.625 4H19.625C20.7296 4 21.625 4.89543 21.625 6V20C21.625 21.1046 20.7296 22 19.625 22H5.625C4.52043 22 3.625 21.1046 3.625 20V6C3.625 4.89543 4.52043 4 5.625 4Z" stroke="#929292" stroke-width="2" stroke-linecap="round" stroke-linejoin="round"/>
</svg>
